<svg width="172" height="86" viewBox="0 0 172 86" fill="none" xmlns="http://www.w3.org/2000/svg">
<g clip-path="url(#clip0_17_59)">
<path d="M82.3729 44.9589H82.386V42.7946C82.893 43.5038 83.3839 44.2519 83.8909 44.9611C83.3839 44.9551 82.8799 44.9678 82.3729 44.9611V44.9589Z" fill="#FFEB0D"/>
<path d="M79.2257 44.9626L79.2213 42.7953L79.2439 16.0247H82.3918L82.3867 42.7945C82.3867 42.7945 82.3852 42.7938 82.3852 42.793L82.3729 44.9588L79.2257 44.9626Z" fill="#FFEB0D"/>
<path d="M82.3729 44.9589L82.3853 42.7931C82.3853 42.7931 82.386 42.7938 82.3867 42.7946V44.9589H82.3729Z" fill="#FFEB0D"/>
<path d="M65.3983 9.26318H100.982V11.2113H65.3285C65.3219 11.2113 65.3154 11.2105 65.3088 11.209V9.26318H65.3983Z" fill="#FFEB0D"/>
<path d="M100.982 6.45474H66.4973V7.83053H100.982V6.45474Z" fill="#FFEB0D"/>
<path d="M100.982 3.64706H66.4973V5.0221H100.982V3.64706Z" fill="#FFEB0D"/>
<path d="M65.3088 2.03713V0.0942688H100.982V2.04237H65.3088V2.03713Z" fill="#FFEB0D"/>
<path d="M100.091 12.8729V16.0247H96.9836V15.9102L93.7891 15.9611V16.0247H82.3918V15.8848L79.2438 15.9768V16.0247H68.7811V15.8593L65.5495 15.8077V16.0247H62.2627V12.8729H100.091Z" fill="#FFEB0D"/>
<path d="M99.7359 31.8399H96.9706L96.972 29.7317L99.7359 31.8399Z" fill="#FFEB0D"/>
<path d="M96.9837 15.9102V16.0247H93.7892V15.9611L96.9837 15.9102Z" fill="#FFEB0D"/>
<path d="M96.9837 16.0247L96.972 29.7317L96.9691 29.7294V31.8399H93.7397L93.7892 16.0247H96.9837Z" fill="#FFEB0D"/>
<path d="M96.972 29.7317L96.9706 31.8399H96.9691V29.7294L96.972 29.7317Z" fill="#FFEB0D"/>
<path d="M92.5512 38.5445H89.7844V36.4341L92.5512 38.5445Z" fill="#FFEB0D"/>
<path d="M89.7844 36.4341V38.5445H86.6089V17.9728H89.7844V36.4341Z" fill="#FFEB0D"/>
<path d="M82.3918 15.8848V16.0247H79.2439V15.9768L82.3918 15.8848Z" fill="#FFEB0D"/>
<path d="M79.2213 42.7953L79.2257 44.9626H79.2191L79.2213 42.7953Z" fill="#FFEB0D"/>
<path d="M79.2214 42.7953L79.2192 44.9626C78.7137 44.9686 78.166 44.9753 77.6605 44.9813C78.1682 44.2713 78.713 43.5053 79.2214 42.7953Z" fill="#FFEB0D"/>
<path d="M75.4108 17.9728V38.5445H72.2352V38.5438V36.4333V17.9728H75.4108Z" fill="#FFEB0D"/>
<path d="M72.2353 36.4333V38.5438H69.4685L72.2353 36.4333Z" fill="#FFEB0D"/>
<path d="M68.7811 16.0247V31.8399H65.5496V29.7294V16.0247H68.7811Z" fill="#FFEB0D"/>
<path d="M68.7811 15.8593V16.0247H65.5496V15.8077L68.7811 15.8593Z" fill="#FFEB0D"/>
<path d="M65.5496 29.7294V31.8399H62.7828L65.5496 29.7294Z" fill="#FFEB0D"/>
<path d="M65.3983 9.26319H65.3088V11.209C62.054 10.8844 59.7003 7.90012 60.0531 4.94581C60.3556 2.41044 62.5464 0.286535 65.3088 0.0942688V2.03713C63.7916 2.43662 62.6773 3.72713 62.5187 5.23159C62.3318 7.01136 63.5705 8.77542 65.3983 9.26319Z" fill="#FFEB0D"/>
</g>
<path d="M40.0074 68V54H45.2874C46.6407 54 47.6441 54.29 48.2974 54.87C48.9574 55.4433 49.2874 56.28 49.2874 57.38C49.2874 58.2 49.1007 58.8867 48.7274 59.44C48.3607 59.9867 47.8074 60.3867 47.0674 60.64V60.16C48.1874 60.4 49.0241 60.84 49.5774 61.48C50.1307 62.12 50.4074 62.9667 50.4074 64.02C50.4074 65.28 50.0007 66.26 49.1874 66.96C48.3741 67.6533 47.2607 68 45.8474 68H40.0074ZM42.5674 65.72H45.4674C46.1674 65.72 46.7241 65.5767 47.1374 65.29C47.5574 65.0033 47.7674 64.4867 47.7674 63.74C47.7674 62.98 47.5474 62.4633 47.1074 62.19C46.6674 61.9167 46.1207 61.78 45.4674 61.78H42.5674V65.72ZM42.5674 59.5H44.9074C45.5274 59.5 45.9907 59.3733 46.2974 59.12C46.6107 58.8667 46.7674 58.46 46.7674 57.9C46.7674 57.32 46.6107 56.9067 46.2974 56.66C45.9907 56.4067 45.5274 56.28 44.9074 56.28H42.5674V59.5ZM58.1869 68.2C57.1002 68.2 56.1736 67.9633 55.4069 67.49C54.6402 67.0167 54.0536 66.3867 53.6469 65.6C53.2469 64.8133 53.0469 63.9533 53.0469 63.02C53.0469 62.08 53.2469 61.2133 53.6469 60.42C54.0536 59.6267 54.6402 58.9933 55.4069 58.52C56.1736 58.04 57.1002 57.8 58.1869 57.8C59.2736 57.8 60.2002 58.04 60.9669 58.52C61.7336 58.9933 62.3169 59.6267 62.7169 60.42C63.1236 61.2133 63.3269 62.08 63.3269 63.02C63.3269 63.9533 63.1236 64.8133 62.7169 65.6C62.3169 66.3867 61.7336 67.0167 60.9669 67.49C60.2002 67.9633 59.2736 68.2 58.1869 68.2ZM58.1869 66.16C59.0202 66.16 59.6602 65.87 60.1069 65.29C60.5602 64.7033 60.7869 63.9467 60.7869 63.02C60.7869 62.08 60.5602 61.3167 60.1069 60.73C59.6602 60.1367 59.0202 59.84 58.1869 59.84C57.3602 59.84 56.7202 60.1367 56.2669 60.73C55.8136 61.3167 55.5869 62.08 55.5869 63.02C55.5869 63.9467 55.8136 64.7033 56.2669 65.29C56.7202 65.87 57.3602 66.16 58.1869 66.16ZM71.0932 68.2C70.0065 68.2 69.0798 67.9633 68.3132 67.49C67.5465 67.0167 66.9598 66.3867 66.5532 65.6C66.1532 64.8133 65.9532 63.9533 65.9532 63.02C65.9532 62.08 66.1532 61.2133 66.5532 60.42C66.9598 59.6267 67.5465 58.9933 68.3132 58.52C69.0798 58.04 70.0065 57.8 71.0932 57.8C72.1798 57.8 73.1065 58.04 73.8732 58.52C74.6398 58.9933 75.2232 59.6267 75.6232 60.42C76.0298 61.2133 76.2332 62.08 76.2332 63.02C76.2332 63.9533 76.0298 64.8133 75.6232 65.6C75.2232 66.3867 74.6398 67.0167 73.8732 67.49C73.1065 67.9633 72.1798 68.2 71.0932 68.2ZM71.0932 66.16C71.9265 66.16 72.5665 65.87 73.0132 65.29C73.4665 64.7033 73.6932 63.9467 73.6932 63.02C73.6932 62.08 73.4665 61.3167 73.0132 60.73C72.5665 60.1367 71.9265 59.84 71.0932 59.84C70.2665 59.84 69.6265 60.1367 69.1732 60.73C68.7198 61.3167 68.4932 62.08 68.4932 63.02C68.4932 63.9467 68.7198 64.7033 69.1732 65.29C69.6265 65.87 70.2665 66.16 71.0932 66.16ZM79.4394 68V53H81.9194V62.1L85.0194 58H87.8194L84.1794 62.8L87.8994 68H85.0994L81.9194 63.56V68H79.4394ZM90.9097 68V54H93.4697V59.54H99.8697V54H102.43V68H99.8697V61.94H93.4697V68H90.9097ZM106.463 68V58H108.943V68H106.463ZM106.463 56.48V54H108.943V56.48H106.463ZM115.508 68L111.668 58H114.108L116.568 64.92L119.028 58H121.468L117.628 68H115.508ZM128.834 68.2C127.627 68.2 126.621 67.96 125.814 67.48C125.014 66.9933 124.414 66.3533 124.014 65.56C123.614 64.76 123.414 63.8867 123.414 62.94C123.414 62.0267 123.601 61.1833 123.974 60.41C124.354 59.6367 124.907 59.0167 125.634 58.55C126.361 58.0767 127.247 57.84 128.294 57.84C129.254 57.84 130.054 58.0367 130.694 58.43C131.334 58.8233 131.814 59.35 132.134 60.01C132.454 60.6633 132.614 61.3867 132.614 62.18C132.614 62.4 132.601 62.6233 132.574 62.85C132.547 63.07 132.507 63.3 132.454 63.54H125.994C126.087 64.16 126.281 64.6633 126.574 65.05C126.874 65.43 127.237 65.71 127.664 65.89C128.097 66.07 128.561 66.16 129.054 66.16C129.634 66.16 130.174 66.0867 130.674 65.94C131.174 65.7867 131.634 65.5867 132.054 65.34L132.174 67.44C131.794 67.64 131.321 67.8167 130.754 67.97C130.187 68.1233 129.547 68.2 128.834 68.2ZM126.054 61.86H130.094C130.094 61.56 130.037 61.26 129.924 60.96C129.811 60.6533 129.621 60.3967 129.354 60.19C129.094 59.9833 128.741 59.88 128.294 59.88C127.654 59.88 127.151 60.0667 126.784 60.44C126.417 60.8133 126.174 61.2867 126.054 61.86Z" fill="#FFEB0D"/>
<defs>
<clipPath id="clip0_17_59">
<rect width="41" height="45" fill="white" transform="translate(60)"/>
</clipPath>
</defs>
</svg>
