<svg width="35" height="35" viewBox="0 0 35 35" fill="none" xmlns="http://www.w3.org/2000/svg">
<path d="M14.5834 20.4167H20.4167V17.5H14.5834V20.4167ZM14.5834 16.0417H26.25V13.125H14.5834V16.0417ZM14.5834 11.6667H26.25V8.75H14.5834V11.6667ZM11.6667 26.25C10.8646 26.25 10.178 25.9644 9.60679 25.3932C9.03561 24.822 8.75002 24.1354 8.75002 23.3333V5.83333C8.75002 5.03125 9.03561 4.34462 9.60679 3.77344C10.178 3.20226 10.8646 2.91667 11.6667 2.91667H29.1667C29.9688 2.91667 30.6554 3.20226 31.2266 3.77344C31.7978 4.34462 32.0834 5.03125 32.0834 5.83333V23.3333C32.0834 24.1354 31.7978 24.822 31.2266 25.3932C30.6554 25.9644 29.9688 26.25 29.1667 26.25H11.6667ZM11.6667 23.3333H29.1667V5.83333H11.6667V23.3333ZM5.83335 32.0833C5.03127 32.0833 4.34464 31.7977 3.77346 31.2266C3.20228 30.6554 2.91669 29.9687 2.91669 29.1667V8.75H5.83335V29.1667H26.25V32.0833H5.83335Z" fill="#414141"/>
</svg>
