<svg width="35" height="35" viewBox="0 0 35 35" fill="none" xmlns="http://www.w3.org/2000/svg">
<path d="M17.5 30.625C15.6771 30.625 13.9696 30.2786 12.3776 29.5859C10.7856 28.8932 9.40017 27.9575 8.22135 26.7786C7.04253 25.5998 6.10677 24.2144 5.41406 22.6224C4.72135 21.0304 4.375 19.3229 4.375 17.5C4.375 15.6771 4.72135 13.9696 5.41406 12.3776C6.10677 10.7856 7.04253 9.40017 8.22135 8.22135C9.40017 7.04253 10.7856 6.10677 12.3776 5.41406C13.9696 4.72135 15.6771 4.375 17.5 4.375C19.4931 4.375 21.3828 4.80035 23.1693 5.65104C24.9557 6.50174 26.4688 7.70486 27.7083 9.26042V5.83333H30.625V14.5833H21.875V11.6667H25.8854C24.8889 10.3056 23.6615 9.23611 22.2031 8.45833C20.7448 7.68056 19.1771 7.29167 17.5 7.29167C14.6562 7.29167 12.2439 8.28212 10.263 10.263C8.28212 12.2439 7.29167 14.6562 7.29167 17.5C7.29167 20.3437 8.28212 22.7561 10.263 24.737C12.2439 26.7179 14.6562 27.7083 17.5 27.7083C20.0521 27.7083 22.2821 26.8819 24.1901 25.2292C26.0981 23.5764 27.2222 21.4861 27.5625 18.9583H30.5521C30.1875 22.2882 28.7595 25.0651 26.2682 27.2891C23.7769 29.513 20.8542 30.625 17.5 30.625ZM21.5833 23.625L16.0417 18.0833V10.2083H18.9583V16.9167L23.625 21.5833L21.5833 23.625Z" fill="#414141"/>
</svg>
